<svg xmlns="http://www.w3.org/2000/svg" fill="none" width="24" height="24"><path d="m8.7 7.757 7.542 7.542q.047.047.083.101.037.055.062.116.025.06.038.125.013.064.013.13 0 .065-.013.13-.013.064-.038.125-.025.06-.062.115-.036.055-.083.101-.046.046-.1.083-.055.036-.116.062-.06.025-.125.038-.064.012-.13.012t-.13-.013q-.064-.012-.125-.037-.06-.026-.115-.062-.055-.037-.101-.083L7.757 8.7q-.046-.047-.083-.101-.036-.055-.061-.116-.025-.06-.038-.125-.013-.064-.013-.13 0-.065.013-.13.013-.064.038-.125.025-.06.061-.115.037-.055.083-.101.047-.047.101-.083.055-.037.115-.062.061-.025.125-.038.065-.012.13-.012.066 0 .13.012.065.013.126.038.06.025.115.062.055.036.101.083Z" fill-rule="evenodd" fill="#87888A"/><path d="M16.242 8.7 8.7 16.242q-.046.047-.101.083-.055.037-.115.062-.061.025-.125.038-.065.012-.13.013-.066 0-.13-.013-.065-.013-.126-.038-.06-.025-.115-.062-.054-.036-.1-.083-.047-.046-.084-.1-.036-.055-.061-.116-.025-.06-.038-.125-.013-.065-.013-.13 0-.066.013-.13.013-.065.038-.125.025-.061.061-.116.037-.054.083-.1L15.3 7.756q.046-.046.1-.083.055-.036.116-.062.06-.025.125-.038.064-.012.13-.012t.13.012q.065.013.125.038.06.026.115.062.055.037.101.083.047.046.083.101.037.055.062.115.025.06.038.125.013.065.013.13 0 .066-.013.13-.013.065-.038.125-.025.061-.062.116-.036.054-.083.1Z" fill-rule="evenodd" fill="#87888A"/></svg>