<svg xmlns="http://www.w3.org/2000/svg" fill="none" width="24" height="24"><rect width="24" height="24" rx="4" fill="none"/><path d="M8.725 19.5H10.9q2.082 0 2.73-.335.846-.44 1.285-1.286.335-.647.335-2.729v-3.3q0-2.082-.335-2.73-.44-.846-1.286-1.285Q12.982 7.5 10.9 7.5H8.725q-2.082 0-2.73.335-.846.44-1.285 1.286-.335.647-.335 2.729v3.3q0 2.082.335 2.73.44.846 1.286 1.285.647.335 2.729.335Zm4.214-1.667Q12.617 18 10.9 18H8.725q-1.717 0-2.039-.167-.424-.22-.644-.644-.167-.322-.167-2.039v-3.3q0-1.717.167-2.039.22-.424.644-.644Q7.008 9 8.725 9H10.9q1.717 0 2.039.167.424.22.644.644.167.322.167 2.039v3.3q0 1.717-.167 2.039-.22.424-.644.644Z" fill-rule="evenodd" fill="#141414"/><path d="M7.75 7.65v.089q0 .074.014.146.015.072.043.14.028.069.07.13.04.062.093.114.052.052.113.093.062.041.13.07.068.028.14.042.073.015.147.015t.146-.015q.073-.014.141-.042.068-.029.13-.07.061-.04.113-.093.053-.052.094-.114.04-.061.069-.13.028-.068.043-.14.014-.072.014-.146V7.65q0-.669.027-.809.19-.999 1.19-1.19.139-.026.808-.026H15.1q.669 0 .809.027.999.19 1.19 1.19.026.139.026.808v4.95q0 .669-.027.809-.19.999-1.19 1.19-.139.026-.808.026-.074 0-.146.014-.073.015-.141.043-.068.028-.13.07-.061.04-.113.093-.053.052-.094.113-.04.062-.069.13-.028.068-.043.14-.014.073-.014.147t.014.146q.015.073.043.141.028.068.07.13.04.061.093.113.052.053.113.094.062.04.13.069.068.028.14.043.073.014.147.014.81 0 1.09-.053.903-.172 1.556-.826.653-.653.826-1.556.053-.28.053-1.09V7.65q0-.81-.053-1.09-.173-.903-.826-1.556t-1.556-.826q-.28-.053-1.09-.053h-3.825q-.81 0-1.09.053-.903.173-1.556.826T7.803 6.56q-.053.28-.053 1.09Z" fill-rule="evenodd" fill="#141414"/></svg>