<svg xmlns="http://www.w3.org/2000/svg" fill="none" width="16" height="16"><path d="m7.568 10.291-4.43-4.43q-.047-.046-.101-.082-.055-.037-.116-.062-.06-.025-.125-.038-.064-.013-.13-.013-.065 0-.13.013-.064.013-.125.038-.06.025-.115.062-.055.036-.101.082-.047.047-.083.101-.036.055-.062.116-.025.06-.038.125Q2 6.267 2 6.333t.012.13q.013.064.038.125.026.06.062.115.036.055.083.101l4.43 4.43q.513.514.823.612.404.128.808-.001.31-.098.822-.613L13.5 6.794q.094-.093.145-.216.05-.123.05-.255 0-.133-.051-.255-.051-.123-.145-.216-.047-.047-.101-.083-.055-.036-.116-.061-.06-.026-.125-.038-.064-.013-.13-.013t-.13.013q-.064.013-.125.038-.06.026-.115.062-.055.037-.101.083l-4.422 4.438q-.21.211-.277.267l-.01.008-.002-.008q-.067-.056-.277-.267Z" fill-rule="evenodd" fill="#87888A"/></svg>