<svg xmlns="http://www.w3.org/2000/svg" fill="none" width="32" height="32"><rect width="32" height="32" rx="0" fill="#FFF"/><path d="M14 5h4c2.8 0 4.232.006 5.298.558a5.022 5.022 0 0 1 2.144 2.144C25.994 8.768 26 10.2 26 13v6c0 2.8-.006 4.232-.558 5.298a5.022 5.022 0 0 1-2.144 2.144C22.232 26.994 20.8 27 18 27h-4c-2.8 0-4.232-.006-5.298-.558a5.022 5.022 0 0 1-2.144-2.144C6.006 23.232 6 21.8 6 19v-6c0-2.8.006-4.232.558-5.298a5.022 5.022 0 0 1 2.144-2.144C9.768 5.006 11.2 5 14 5" fill-rule="evenodd" fill="#E19859"/><path d="M14.75 16.899v3.583h2.5v-6.084h2.917v-2.501h-8.334v2.5h2.916V16.9Z" fill-rule="evenodd" fill="#FFF"/></svg>