<svg xmlns="http://www.w3.org/2000/svg" fill="none" width="32" height="32"><rect width="32" height="32" rx="0" fill="#FFF"/><path d="M14 5h4c2.8 0 4.232.006 5.298.558a5.022 5.022 0 0 1 2.144 2.144C25.994 8.768 26 10.2 26 13v6c0 2.8-.006 4.232-.558 5.298a5.022 5.022 0 0 1-2.144 2.144C22.232 26.994 20.8 27 18 27h-4c-2.8 0-4.232-.006-5.298-.558a5.022 5.022 0 0 1-2.144-2.144C6.006 23.232 6 21.8 6 19v-6c0-2.8.006-4.232.558-5.298a5.022 5.022 0 0 1 2.144-2.144C9.768 5.006 11.2 5 14 5" fill-rule="evenodd" fill="#FF6637"/><g fill-rule="evenodd" fill="#FFF"><path d="M15.703 17.154c-9.637 1.708-4.24 7.552-.417-.463 3.824-8.014-5.154-6.63.699 0s9.356-1.245-.282.463Z" fill-opacity=".01"/><path d="M15.528 18.034q-1.206 2.131-2.706 3.06-1.923 1.19-2.987.04-.575-.62-.304-1.506.216-.705.968-1.337 1.326-1.112 3.92-1.724.058-.115.115-.235l.032-.067q-1.385-1.875-1.454-3.461-.094-2.139 1.625-2.426 1.76-.294 2.26 1.807.37 1.559-.505 3.82l.118.135.028.032q2.712-.325 4.322.354.912.384 1.319 1.04.474.763.138 1.535-.658 1.512-2.831 1.033-1.758-.388-3.566-2.189l-.171.03q-.163.029-.321.06Zm-2.505.703q-.897.364-1.452.83-.312.263-.414.468.213-.004.788-.359.557-.345 1.078-.94Zm5.294-1.008q.845.605 1.628.777.833.184.944-.07l-.026.01q-.127-.206-.55-.384-.781-.33-1.996-.333Zm-3.029-3.403q.258-1.036.087-1.755-.14-.587-.363-.55-.264.045-.235.71.031.718.511 1.595Z"/></g></svg>