<svg xmlns="http://www.w3.org/2000/svg" fill="none" width="32" height="32"><rect width="32" height="32" rx="0" fill="#FFF"/><path d="M12.4 5h7.2c2.24 0 3.386.005 4.238.446.734.38 1.335.982 1.715 1.716.442.852.447 1.998.447 4.238v9.2c0 2.24-.005 3.386-.447 4.238a4.017 4.017 0 0 1-1.715 1.715c-.852.442-1.998.447-4.238.447h-7.2c-2.24 0-3.386-.005-4.238-.447a4.018 4.018 0 0 1-1.716-1.715C6.005 23.986 6 22.84 6 20.6v-9.2c0-2.24.005-3.386.446-4.238a4.018 4.018 0 0 1 1.716-1.716C9.014 5.005 10.16 5 12.4 5" fill-rule="evenodd" fill="#2655FE"/><path d="M13.5 11.875v4.814l2.01-3.046h.979L18.5 16.69v-4.816H21v8.25h-2.519L16 16.741l-2.481 3.384H11v-8.25h2.5Z" fill-rule="evenodd" fill="#FFF"/></svg>