<svg xmlns="http://www.w3.org/2000/svg" fill="none" width="32" height="32"><rect width="32" height="32" rx="0" fill="#FFF"/><path d="M14 5h4c2.8 0 4.232.006 5.298.558a5.022 5.022 0 0 1 2.144 2.144C25.994 8.768 26 10.2 26 13v6c0 2.8-.006 4.232-.558 5.298a5.022 5.022 0 0 1-2.144 2.144C22.232 26.994 20.8 27 18 27h-4c-2.8 0-4.232-.006-5.298-.558a5.022 5.022 0 0 1-2.144-2.144C6.006 23.232 6 21.8 6 19v-6c0-2.8.006-4.232.558-5.298a5.022 5.022 0 0 1 2.144-2.144C9.768 5.006 11.2 5 14 5" fill-rule="evenodd" fill="#FF5268"/><path d="M12.364 13.176h4.846q.535 0 .912.378.378.378.378.912t-.378.912q-.377.378-.912.378h-4.846v7.198h2.5v-4.698h2.346q1.57 0 2.68-1.11t1.11-2.68q0-1.57-1.11-2.68t-2.68-1.11h-4.846v2.5Z" fill-rule="evenodd" fill="#FFF"/></svg>