<svg xmlns="http://www.w3.org/2000/svg" fill="none" width="32" height="32"><rect width="32" height="32" rx="0" fill="#FFF"/><path d="M13.822 5h4.356c2.738 0 4.138.006 5.18.546a4.91 4.91 0 0 1 2.096 2.096c.54 1.042.546 2.442.546 5.18v6.356c0 2.738-.006 4.138-.546 5.18a4.91 4.91 0 0 1-2.096 2.096c-1.042.54-2.442.546-5.18.546h-4.356c-2.738 0-4.138-.006-5.18-.546a4.91 4.91 0 0 1-2.096-2.096C6.006 23.316 6 21.916 6 19.178v-6.356c0-2.738.006-4.138.546-5.18a4.91 4.91 0 0 1 2.096-2.096C9.684 5.006 11.084 5 13.822 5" fill-rule="evenodd" fill="#01B890"/><path d="M11.289 11h3.13l1.631 2.83L17.631 11h3.1l-2.861 4.454L21 20.197h-3.193l-1.813-2.955-1.82 2.955H11l3.174-4.793L11.29 11Z" fill="#FFF"/></svg>