<svg xmlns="http://www.w3.org/2000/svg" fill="none" width="14" height="14"><path d="M11.537 2.463Q9.657.583 7 .583q-2.658 0-4.537 1.88Q.583 4.343.583 7q0 2.658 1.88 4.537 1.88 1.88 4.537 1.88 2.658 0 4.537-1.88 1.88-1.88 1.88-4.537 0-2.658-1.88-4.537Zm-8.25.825Q4.826 1.75 7 1.75t3.712 1.538Q12.25 4.825 12.25 7q0 2.175-1.538 3.712Q9.175 12.25 7 12.25q-2.175 0-3.712-1.538Q1.75 9.175 1.75 7q0-2.175 1.538-3.712Z" fill-rule="evenodd" fill="#B9BABD"/><path d="M6.854 10.5a.73.73 0 1 0 0-1.458.73.73 0 0 0 0 1.458M6.27 7.41v.32q0 .057.012.113.011.056.033.11.022.052.054.1.032.048.073.089.04.04.088.072.048.032.1.054.054.022.11.033.057.012.114.012.058 0 .114-.012.056-.01.11-.033.052-.022.1-.054.048-.032.089-.072.04-.041.072-.089.032-.048.054-.1.022-.054.033-.11.011-.056.011-.114V7.41q0-.117.002-.15l-.002-.002.001-.002.112-.102q.498-.456.551-.5.649-.538.649-1.355 0-.759-.571-1.288Q7.626 3.5 6.854 3.5q-.772 0-1.324.511-.572.53-.572 1.288 0 .057.012.113.01.057.033.11.022.053.054.1.032.048.072.09.04.04.089.072.047.032.1.054.054.022.11.033.056.01.114.01.116 0 .223-.043.107-.045.19-.127.081-.082.126-.19.044-.106.044-.222 0-.249.197-.432.217-.2.532-.2.315 0 .532.2.197.183.197.432 0 .269-.226.456-.075.063-.595.538-.218.2-.299.323-.107.162-.155.35-.037.143-.037.444Z" fill-rule="evenodd" fill="#B9BABD"/></svg>