<svg xmlns="http://www.w3.org/2000/svg" fill="none" width="16" height="16"><path d="M12 8.667H2q-.066 0-.13-.013t-.125-.038q-.06-.025-.115-.062-.055-.036-.101-.083-.047-.046-.083-.1-.037-.055-.062-.116-.025-.06-.038-.125-.013-.064-.013-.13t.013-.13q.013-.064.038-.125.025-.06.062-.115.036-.055.083-.101.046-.047.1-.083.055-.037.116-.062.06-.025.125-.038.064-.013.13-.013h10q.066 0 .13.013t.125.038q.06.025.115.062.055.036.101.083.047.046.083.1.037.055.062.116.025.06.038.125.013.064.013.13t-.013.13q-.013.064-.038.125-.025.06-.062.115-.036.055-.083.101-.046.047-.1.083-.055.037-.116.062-.06.025-.125.038-.064.013-.13.013Z" fill-rule="evenodd" fill="#626466"/><path d="m12.77 7.012-2.344-2.28q-.095-.092-.218-.142-.123-.049-.256-.047-.132.002-.254.054-.122.053-.214.148-.046.047-.082.102-.036.055-.06.116-.024.061-.036.126-.012.064-.011.13 0 .066.014.13t.04.124q.026.06.063.115.037.054.085.1l2.343 2.28.032.032-.032.032-2.343 2.28q-.096.092-.148.214-.052.122-.054.255-.002.132.047.255.05.124.142.219.045.047.1.084.054.037.114.063.06.026.125.04.064.013.13.014.065.001.13-.01.064-.013.125-.037t.116-.06q.055-.036.102-.082l2.344-2.28q.394-.384.479-.646.11-.341 0-.683-.085-.262-.48-.646Z" fill-rule="evenodd" fill="#626466"/></svg>