<svg xmlns="http://www.w3.org/2000/svg" fill="none" width="20" height="20"><path d="M5.624 8.018q-.07-.253-.07-1.351 0-.055-.01-.108-.011-.054-.032-.104-.02-.05-.051-.096-.03-.046-.07-.084-.038-.039-.083-.07-.046-.03-.096-.05-.05-.021-.104-.032-.053-.01-.108-.01t-.108.01q-.054.01-.104.032-.05.02-.096.05-.045.031-.084.07-.038.038-.069.084-.03.045-.051.096-.02.05-.032.104-.01.053-.01.108 0 1.248.109 1.645.213.776.785 1.348.572.572 1.348.785.397.11 1.645.11h5.834q.054 0 .108-.011.053-.011.104-.032.05-.02.096-.051.045-.03.084-.07.038-.038.068-.083.03-.046.052-.096.02-.05.031-.104.01-.053.01-.108t-.01-.108q-.01-.054-.031-.104-.021-.05-.052-.096-.03-.045-.068-.084-.04-.038-.084-.069-.046-.03-.096-.051-.05-.02-.104-.032-.054-.01-.108-.01H8.333q-1.098 0-1.35-.07-.494-.135-.859-.5t-.5-.858Z" fill-rule="evenodd" fill="#87888A"/><path d="m15.178 8.936-2.332-2.27q-.08-.076-.182-.117-.102-.04-.212-.039-.11.001-.212.045-.1.044-.178.123-.038.039-.068.085-.03.045-.05.096-.02.05-.03.104-.01.054-.009.109.001.054.012.108.012.053.033.103.022.05.053.095.03.045.07.083l2.332 2.27q.182.177.23.233l.009.003-.008.01q-.049.056-.231.233l-2.332 2.27q-.04.037-.07.082-.031.045-.053.095-.021.05-.033.104-.011.053-.012.108 0 .054.01.108t.03.104q.02.051.05.097.03.046.067.085.077.079.178.122.102.044.212.045.11.002.212-.039.103-.04.182-.117l2.332-2.27q.443-.43.527-.692.11-.342 0-.683-.084-.262-.527-.693Z" fill-rule="evenodd" fill="#87888A"/></svg>