<svg xmlns="http://www.w3.org/2000/svg" fill="none" width="16" height="16"><path d="M11.717 12.03h-.93q-.065 0-.13.013-.064.013-.124.038t-.115.061q-.055.037-.1.083-.047.046-.084.1-.036.055-.061.116-.025.06-.038.124-.013.065-.013.13 0 .066.013.13t.038.125q.025.06.061.115.037.054.083.1.046.047.1.083.055.036.116.061.06.026.125.038.064.013.13.013h.929q1.73 0 2.99-1.358 1.214-1.309 1.214-3.01 0-1.345-.824-2.423-.793-1.04-2.052-1.444-.61-1.526-1.955-2.466Q9.698 1.685 8 1.685q-1.576 0-2.903.85Q3.82 3.35 3.142 4.71q-1.329.362-2.18 1.425Q.08 7.236.08 8.633q0 1.712 1.188 3.16 1.287 1.567 3.016 1.567h.851q.066 0 .13-.013.064-.012.125-.038.06-.025.115-.061.054-.036.1-.083.047-.046.083-.1.036-.055.061-.115.026-.061.038-.125.013-.064.013-.13 0-.065-.013-.13-.012-.064-.038-.124-.025-.061-.061-.115-.036-.055-.083-.101-.046-.046-.1-.083-.055-.036-.115-.061-.06-.025-.125-.038-.064-.013-.13-.013h-.85q-1.101 0-1.99-1.082Q1.41 9.87 1.41 8.633q0-.93.59-1.666.586-.733 1.509-.979l.041-.01q.19-.05.297-.11.162-.088.283-.227.084-.098.177-.286l.014-.03q.516-1.046 1.492-1.67 1-.64 2.187-.64 1.279 0 2.328.734 1.028.719 1.49 1.89l.015.038q.08.201.158.308.115.155.28.257.108.068.303.129.03.01.048.014.873.277 1.418.991.55.72.55 1.616 0 1.18-.858 2.105-.866.933-2.015.933Z" fill-rule="evenodd" fill="#141414"/><path d="M5.004 12.032h-.055q-.065 0-.13.012-.064.013-.124.038t-.115.062q-.055.036-.101.082-.046.047-.083.101-.036.055-.061.115-.025.06-.038.125-.013.064-.013.13 0 .065.013.13.013.064.038.124t.061.115q.037.055.083.1.046.047.1.084.055.036.116.061.06.025.124.038.065.013.13.013h.055q.871 0 1.197-.025.56-.042.927-.209.897-.407 1.304-1.304.167-.367.209-.927.024-.326.024-1.197V8.006q0-.132-.05-.254t-.144-.216q-.094-.093-.216-.144-.122-.05-.255-.05-.132 0-.254.05t-.216.144q-.093.094-.144.216-.05.122-.05.254V9.7q0 1.323-.115 1.575-.2.442-.643.642-.252.115-1.574.115Z" fill-rule="evenodd" fill="#141414"/><path d="m7.532 7.535 1.54 1.523q.094.093.216.143.122.05.255.049.132 0 .254-.052.122-.051.215-.145.046-.047.082-.102.036-.054.061-.115.025-.06.037-.125.013-.064.012-.13 0-.065-.013-.13-.013-.063-.039-.124-.025-.06-.062-.114-.036-.055-.083-.1L8.468 6.588q-.047-.046-.101-.082-.055-.036-.116-.06-.06-.026-.124-.038-.065-.012-.13-.012-.066 0-.13.013t-.125.039q-.06.025-.114.062-.054.037-.1.083-.047.047-.083.101-.036.055-.06.116-.025.06-.038.125-.012.064-.012.13 0 .065.014.129.013.064.038.125.026.06.062.114.037.054.083.1Z" fill-rule="evenodd" fill="#141414"/><path d="m8.344 7.535-1.54 1.523q-.093.093-.216.143-.122.05-.255.049-.132 0-.254-.052-.122-.051-.215-.145-.046-.047-.082-.102-.036-.054-.06-.115-.026-.06-.038-.125-.012-.064-.012-.13 0-.065.013-.13.013-.063.039-.124.025-.06.062-.114.037-.055.083-.1l1.54-1.524q.046-.046.1-.082.055-.036.116-.06.06-.026.125-.038.064-.012.13-.012.065 0 .13.013.063.013.124.039.06.025.114.062.055.037.1.083.047.047.083.101.036.055.06.116.025.06.038.125.012.064.012.13 0 .065-.013.129-.014.064-.039.125-.025.06-.062.114-.037.054-.083.1Z" fill-rule="evenodd" fill="#141414"/></svg>